<svg version="1.1" xmlns="http://www.w3.org/2000/svg" xmlns:xlink="http://www.w3.org/1999/xlink" width="103.46730041503906" height="23.260009765625"><defs></defs><g transform="translate(-53.904029846191406,3.600006103515625)"><rect fill="rgb(255,255,255)" stroke="none" x="0" y="0" width="103.46730041503906" height="23.260009765625" fill-opacity="0" transform="translate(53.904029846191406,-3.600006103515625)"></rect><g transform="translate(52.72170004193812,12) rotate(0,0,0) translate(-52.72170004193812,-12) matrix(1,0,-0.10510423526567646,1,52.72170004193812,12)"><path fill="rgb(0,0,0)" fill-opacity="1" d="M3.65-8.23L3.65-8.23L3.36-8.16Q3.28-8.08 2.94-8.03Q2.60-7.98 2.28-8.03Q1.96-8.08 1.99-8.28L1.99-8.28Q1.94-8.99 2.89-8.91L2.89-8.91Q3.89-8.84 4.06-9.55L4.06-9.55L5.21-13.92L5.68-14.38Q5.92-14.31 5.92-13.94L5.92-13.94L5.90-13.70L4.75-9.08L4.75-8.96Q4.94-8.89 5.33-8.89Q5.72-8.89 6.73-9.17Q7.73-9.45 7.87-9.45L7.87-9.45Q7.87-8.11 6.07-8.11L6.07-8.11Q5.50-8.11 4.80-8.23L4.80-8.23Q4.26-7.01 4.26-6.00Q4.26-4.98 4.80-4.14Q5.33-3.30 6.46-3.30L6.46-3.30Q7.60-3.47 8.23-3.85Q8.85-4.23 9.14-4.38Q9.44-4.54 9.73-4.54Q10.02-4.54 10.36-4.47L10.36-4.47Q9.68-3.25 6.41-2.86L6.41-2.86Q6.33-2.86 6.29-2.86L6.29-2.86Q4.60-2.86 4.02-4.10L4.02-4.10Q3.58-5.01 3.58-6.19Q3.58-7.37 3.65-8.23ZM15.49-9.25L15.49-9.25Q14.78-7.45 14.78-5.89L14.78-5.89Q14.78-3.30 17.59-3.30L17.59-3.30Q18.30-3.40 18.65-3.59Q19.01-3.79 19.42-4.26Q19.84-4.74 20.23-5.06L20.23-5.06L20.35-5.06Q20.23-3.69 19.41-3.21Q18.59-2.74 17.17-2.74L17.17-2.74Q14.12-2.74 13.88-5.30L13.88-5.30Q13.76-4.66 12.77-3.82Q11.78-2.98 11.00-2.98L11.00-2.98Q10.95-2.98 10.88-2.98L10.88-2.98Q9.36-3.40 9.36-4.79L9.36-4.79Q9.36-6.59 11.24-8.30L11.24-8.30Q12.71-9.65 14.10-9.65L14.10-9.65Q14.88-9.65 15.49-9.25ZM10.12-4.91L10.12-4.91Q10.12-4.52 10.16-4.29Q10.19-4.05 10.40-3.86Q10.61-3.66 11.00-3.66L11.00-3.66Q12.07-3.71 13.16-5.38Q14.25-7.06 14.32-8.25L14.32-8.25Q13.93-8.74 13.24-8.74L13.24-8.74Q12.37-8.74 11.41-7.62Q10.46-6.50 10.12-4.91ZM24.72-4.52L24.72-5.59Q24.72-6.03 24.73-7.12Q24.74-8.20 24.74-8.99L24.74-8.99Q24.06-8.84 22.75-7.23Q21.45-5.62 21.33-5.54L21.33-5.54Q20.37-4.27 19.84-3.74L19.84-3.74Q19.62-3.44 19.13-3.44L19.13-3.44L19.13-3.98L20.18-7.37Q20.18-9.16 20.79-10.01L20.79-10.01Q20.96-10.26 21.11-10.26L21.11-10.26Q21.35-10.26 21.35-9.44Q21.35-8.62 21.11-7.63Q20.86-6.64 20.86-5.98L20.86-5.98Q21.06-6.18 22.03-7.35Q23.01-8.52 23.21-8.72L23.21-8.72Q23.38-8.81 23.79-9.21L23.79-9.21Q24.67-9.99 25.33-9.99L25.33-9.99Q25.70-9.99 25.79-9.74L25.79-9.74Q25.82-9.47 25.82-8.88Q25.82-8.28 25.62-7.00Q25.43-5.71 25.40-4.96L25.40-4.96Q25.40-3.81 26.35-3.81L26.35-3.81Q27.04-3.81 27.67-4.19Q28.31-4.57 28.70-5.04Q29.09-5.52 29.60-6.14Q30.11-6.76 30.50-7.06L30.50-7.06L30.50-6.81Q30.50-5.64 28.99-4.38Q27.48-3.13 26.23-3.13L26.23-3.13L25.43-3.13Q25.06-3.37 24.95-3.59Q24.84-3.81 24.79-3.91Q24.74-4.01 24.73-4.21Q24.72-4.42 24.72-4.52L24.72-4.52ZM35.80-9.25L35.80-9.25Q35.09-7.45 35.09-5.89L35.09-5.89Q35.09-3.30 37.90-3.30L37.90-3.30Q38.61-3.40 38.96-3.59Q39.32-3.79 39.73-4.26Q40.15-4.74 40.54-5.06L40.54-5.06L40.66-5.06Q40.54-3.69 39.72-3.21Q38.90-2.74 37.49-2.74L37.49-2.74Q34.44-2.74 34.19-5.30L34.19-5.30Q34.07-4.66 33.08-3.82Q32.09-2.98 31.31-2.98L31.31-2.98Q31.26-2.98 31.19-2.98L31.19-2.98Q29.67-3.40 29.67-4.79L29.67-4.79Q29.67-6.59 31.55-8.30L31.55-8.30Q33.02-9.65 34.41-9.65L34.41-9.65Q35.19-9.65 35.80-9.25ZM30.43-4.91L30.43-4.91Q30.43-4.52 30.47-4.29Q30.50-4.05 30.71-3.86Q30.92-3.66 31.31-3.66L31.31-3.66Q32.38-3.71 33.47-5.38Q34.56-7.06 34.63-8.25L34.63-8.25Q34.24-8.74 33.56-8.74L33.56-8.74Q32.68-8.74 31.73-7.62Q30.77-6.50 30.43-4.91ZM40.66-9.55L40.66-9.55Q40.95-9.55 40.93-8.95Q40.91-8.35 40.66-6.75Q40.42-5.15 40.42-4.86L40.42-4.86L40.42-4.18Q40.42-3.88 40.45-3.86Q40.49-3.83 40.54-3.74Q40.59-3.64 40.67-3.66Q40.76-3.69 40.87-3.63Q40.98-3.57 41.15-3.64L41.15-3.64Q42.13-3.64 42.69-4.47L42.69-4.47Q43.00-4.91 43.21-5.25Q43.42-5.59 43.63-6.29Q43.83-6.98 43.92-7.24Q44.01-7.50 44.15-8.23L44.15-8.23L44.32-8.96Q44.45-9.03 44.63-9.03Q44.81-9.03 45.03-8.74L45.03-8.74L45.03-8.64Q45.03-7.81 44.68-6.09Q44.32-4.37 44.32-3.20L44.32-3.20Q44.59-3.40 45.82-4.15Q47.06-4.91 47.22-5.04Q47.38-5.18 47.57-5.37Q47.77-5.57 47.77-5.47L47.77-5.47Q47.77-5.32 47.13-4.25L47.13-4.25Q47.01-4.13 45.95-3.21Q44.88-2.30 44.79-2.20L44.79-2.20Q44.01-0.51 43.71 3.20L43.71 3.20Q43.62 4.42 43.32 5.54L43.32 5.54Q42.76 7.66 40.59 7.66L40.59 7.66Q40.32 7.66 39.92 7.65Q39.51 7.64 39.25 7.31Q38.98 6.98 38.98 6.47L38.98 6.47Q38.98 4.49 40.34 1.88Q41.71-0.73 43.40-2.49L43.40-2.49Q43.62-2.98 43.62-3.76Q43.62-4.54 43.64-4.81L43.64-4.81Q42.20-2.93 40.86-2.93L40.86-2.93Q40.83-2.93 40.81-2.93L40.81-2.93Q39.73-2.93 39.73-5.37L39.73-5.37Q39.73-5.57 39.76-6.41Q39.78-7.25 40.22-9.33L40.22-9.33Q40.25-9.38 40.42-9.46Q40.59-9.55 40.66-9.55ZM43.30-1.15Q42.57-1.15 41.14 1.74Q39.71 4.64 39.71 5.80Q39.71 6.96 40.51 6.96L40.51 6.96Q40.56 6.96 40.82 6.96Q41.08 6.96 41.49 6.69Q41.91 6.42 42.19 5.86Q42.47 5.30 42.65 4.69Q42.83 4.08 42.96 3.20Q43.08 2.32 43.15 1.68Q43.22 1.05 43.29 0.16Q43.35-0.73 43.40-1.12L43.40-1.12Q43.37-1.12 43.35-1.15L43.35-1.15L43.30-1.15ZM58.51-4.96L58.51-4.96Q59.00-6.57 59.57-7.55Q60.14-8.52 60.95-8.95Q61.75-9.38 62.41-9.49Q63.07-9.60 64.25-9.60L64.25-9.60Q64.32-9.89 64.49-10.76Q64.66-11.62 64.75-11.93Q64.83-12.23 65.00-12.87L65.00-12.87Q65.29-13.92 65.60-14.47Q65.91-15.02 65.98-15.16Q66.05-15.31 66.09-15.37Q66.13-15.43 66.20-15.50L66.20-15.50Q66.30-15.60 66.52-15.60L66.52-15.60Q67.27-15.60 67.27-13.99L67.27-13.99L67.27-13.77Q67.27-12.50 66.20-10.27Q65.12-8.03 65.12-6.86L65.12-6.86Q65.12-4.25 66.54-4.25L66.54-4.25Q67.00-4.25 67.81-4.62Q68.62-4.98 69.08-4.98L69.08-4.98L69.32-4.96Q68.91-4.32 68.09-3.96Q67.27-3.59 66.75-3.59Q66.22-3.59 66.03-3.61Q65.83-3.64 65.66-3.72Q65.49-3.81 65.38-3.86Q65.27-3.91 65.14-4.09Q65.00-4.27 64.94-4.35Q64.88-4.42 64.76-4.69Q64.64-4.96 64.60-5.03Q64.56-5.10 64.43-5.45Q64.29-5.79 64.25-5.89L64.25-5.89Q64.17-5.81 63.68-5.29Q63.20-4.76 63.00-4.58Q62.80-4.40 62.33-3.98Q61.85-3.57 61.54-3.40L61.54-3.40Q60.63-2.91 59.94-2.91Q59.24-2.91 58.94-3.24Q58.63-3.57 58.57-3.94Q58.51-4.32 58.51-4.96ZM62.93-8.69Q61.56-8.69 60.47-7.42Q59.39-6.15 59.39-4.87Q59.39-3.59 60.07-3.59L60.07-3.59Q61.02-3.59 62.52-5.04Q64.03-6.50 64.03-7.52L64.03-7.52Q64.03-8.13 63.77-8.41Q63.51-8.69 62.93-8.69L62.93-8.69ZM66.56-14.43L66.56-14.43Q65.93-13.55 65.53-12.07Q65.12-10.60 65.12-9.60L65.12-9.60Q65.12-9.55 65.15-9.38L65.15-9.38L65.37-9.60Q65.66-9.89 66.56-13.06L66.56-13.06L66.59-13.36Q66.59-13.65 66.59-13.72Q66.59-13.80 66.58-14.09Q66.56-14.38 66.56-14.43ZM68.59-5.62L68.59-5.62Q68.57-5.84 68.57-6.03L68.57-6.03Q68.57-7.59 69.60-9.25Q70.64-10.91 72.28-10.91L72.28-10.91Q72.59-10.91 72.79-10.73Q72.99-10.55 72.99-10.12Q72.99-9.69 72.75-9.12Q72.52-8.55 72.05-7.96Q71.57-7.37 71.23-7.01Q70.89-6.64 70.26-6.06Q69.64-5.47 69.52-5.35L69.52-5.35Q69.49-5.15 69.49-5.13L69.49-5.13Q69.49-4.47 70.13-4.10Q70.76-3.74 71.45-3.74L71.45-3.74Q73.08-3.74 74.05-4.32Q75.01-4.91 76.28-6.30L76.28-6.30Q76.48-6.54 76.51-6.69Q76.55-6.84 76.77-7.01L76.77-7.01Q77.01-6.91 77.01-6.54L77.01-6.54Q76.77-5.79 76.04-4.92Q75.30-4.05 74.30-3.44L74.30-3.44Q72.91-2.64 71.95-2.64Q70.98-2.64 70.08-3.30Q69.18-3.96 68.59-5.62ZM72.33-10.01L72.33-10.01Q71.28-10.01 70.37-8.89Q69.47-7.77 69.47-6.74L69.47-6.74Q69.47-6.40 69.52-6.25L69.52-6.25Q70.42-6.74 71.37-7.92Q72.33-9.11 72.33-10.01ZM78.19-5.57L78.19-5.57L78.43-5.57Q78.75-5.79 79.69-6.56Q80.63-7.33 80.74-7.41Q80.85-7.50 82.14-8.79L82.14-8.79Q82.24-8.91 82.43-9.30L82.43-9.30Q82.85-10.18 83.41-10.18L83.41-10.18Q83.75-10.18 83.75-9.83Q83.75-9.47 83.51-9.03Q83.26-8.60 83.26-8.35L83.26-8.35L83.26-3.79Q85.27-3.79 86.00-4.57L86.00-4.57Q86.29-4.86 86.82-5.45Q87.34-6.03 87.90-6.47L87.90-6.47L87.90-6.23Q87.90-5.37 86.85-4.48Q85.80-3.59 84.66-3.18Q83.51-2.76 83.07-2.76Q82.63-2.76 82.46-2.78L82.46-2.78Q81.80-2.78 81.21-3.02Q80.63-3.25 79.86-3.71Q79.09-4.18 78.63-4.40L78.63-4.40Q77.60-3.71 76.95-3.71Q76.31-3.71 76.31-3.98L76.31-3.98Q76.31-4.10 76.54-4.35Q76.77-4.59 77.53-4.86L77.53-4.86L77.06-5.57Q76.94-5.67 77.09-5.73Q77.23-5.79 77.31-5.79L77.31-5.79L77.72-5.69Q78.16-5.57 78.19-5.57ZM79.58-5.10L79.58-5.10Q79.85-4.57 80.85-4.20Q81.85-3.83 82.65-3.83L82.65-3.83Q82.65-5.96 82.36-7.64L82.36-7.64Q81.82-7.33 81.68-7.19Q81.53-7.06 80.65-6.15Q79.77-5.25 79.58-5.10ZM93.49-9.25L93.49-9.25Q92.79-7.45 92.79-5.89L92.79-5.89Q92.79-3.30 95.59-3.30L95.59-3.30Q96.30-3.40 96.65-3.59Q97.01-3.79 97.42-4.26Q97.84-4.74 98.23-5.06L98.23-5.06L98.35-5.06Q98.23-3.69 97.41-3.21Q96.59-2.74 95.18-2.74L95.18-2.74Q92.13-2.74 91.88-5.30L91.88-5.30Q91.76-4.66 90.77-3.82Q89.78-2.98 89.00-2.98L89.00-2.98Q88.95-2.98 88.88-2.98L88.88-2.98Q87.37-3.40 87.37-4.79L87.37-4.79Q87.37-6.59 89.25-8.30L89.25-8.30Q90.71-9.65 92.10-9.65L92.10-9.65Q92.88-9.65 93.49-9.25ZM88.12-4.91L88.12-4.91Q88.12-4.52 88.16-4.29Q88.20-4.05 88.40-3.86Q88.61-3.66 89.00-3.66L89.00-3.66Q90.08-3.71 91.16-5.38Q92.25-7.06 92.32-8.25L92.32-8.25Q91.93-8.74 91.25-8.74L91.25-8.74Q90.37-8.74 89.42-7.62Q88.46-6.50 88.12-4.91ZM97.47-8.28L97.47-8.28L97.57-8.60Q98.06-10.16 98.40-10.16L98.40-10.16Q98.89-10.16 98.89-9.79L98.89-9.79Q98.89-9.72 98.86-9.65L98.86-9.65Q97.94-7.37 97.94-5.32L97.94-5.32Q97.94-4.40 98.40-3.77Q98.86-3.15 99.82-3.15L99.82-3.15Q102.21-4.08 102.82-4.08L102.82-4.08Q103.01-4.08 103.01-3.98L103.01-3.98Q103.01-3.69 101.75-3.14Q100.48-2.59 99.76-2.59Q99.04-2.59 98.67-2.70Q98.30-2.81 98.13-2.91Q97.96-3.00 97.72-3.33Q97.47-3.66 97.40-4.21Q97.33-4.76 97.33-5.79Q97.33-6.81 97.47-8.28ZM100.04-13.62L100.04-13.62Z"></path></g></g></svg>