<svg version="1.1" xmlns="http://www.w3.org/2000/svg" xmlns:xlink="http://www.w3.org/1999/xlink" width="92.22322082519531" height="27.8800048828125"><defs></defs><g transform="translate(-47.01383972167969,10.3499755859375)"><rect fill="rgb(255,255,255)" stroke="none" x="0" y="0" width="92.22322082519531" height="27.8800048828125" fill-opacity="0" transform="translate(47.01383972167969,-10.3499755859375)"></rect><g transform="translate(46.66587417996712,14.5) rotate(0,0,0) translate(-46.66587417996712,-14.5) matrix(1,0,-0.1227845609029046,1,46.66587417996712,14.5)"><path fill="rgb(0,0,0)" fill-opacity="1" d="M15.51-20.71L15.51-20.71Q15.51-20.51 15.37-20.40Q15.24-20.28 15.04-20.28L15.04-20.28L8.85-20.28L8.85-20.15Q8.85-19.40 8.74-18.56Q8.63-17.72 8.45-16.88Q8.26-16.05 8.02-15.25Q7.78-14.46 7.53-13.79Q7.28-13.12 7.04-12.62Q6.79-12.13 6.60-11.88L6.60-11.88Q6.75-11.32 6.97-10.84Q7.19-10.36 7.47-10.00Q7.74-9.64 8.06-9.43Q8.38-9.22 8.74-9.22L8.74-9.22Q9.17-9.22 9.59-9.58Q10.01-9.94 10.37-10.44Q10.73-10.93 11.01-11.44Q11.28-11.94 11.41-12.25L11.41-12.25Q11.53-12.54 11.83-12.54L11.83-12.54Q12.04-12.54 12.17-12.40Q12.30-12.25 12.30-12.08L12.30-12.08Q12.30-11.99 12.26-11.91L12.26-11.91Q12.22-11.82 12.08-11.52Q11.94-11.21 11.72-10.81Q11.49-10.41 11.19-9.96Q10.89-9.51 10.52-9.15Q10.15-8.78 9.72-8.54Q9.29-8.29 8.82-8.29L8.82-8.29Q7.98-8.29 7.30-8.84Q6.63-9.39 6.16-10.38Q5.69-11.37 5.45-12.72Q5.20-14.08 5.20-15.69L5.20-15.69Q5.20-16.09 5.22-16.64Q5.23-17.18 5.27-17.78Q5.30-18.39 5.38-19.03Q5.45-19.67 5.57-20.28L5.57-20.28L1.19-20.28Q0.99-20.28 0.86-20.40Q0.72-20.51 0.72-20.71L0.72-20.71Q0.72-20.90 0.86-21.02Q0.99-21.14 1.19-21.14L1.19-21.14L5.78-21.14Q5.90-21.57 6.07-21.94Q6.23-22.31 6.44-22.58Q6.66-22.84 6.92-23.00Q7.18-23.15 7.50-23.15L7.50-23.15Q7.80-23.15 8.03-23.00Q8.26-22.84 8.42-22.58Q8.57-22.31 8.67-21.94Q8.76-21.57 8.81-21.14L8.81-21.14L15.04-21.14Q15.24-21.14 15.37-21.02Q15.51-20.90 15.51-20.71ZM6.32-13.10L6.32-13.10Q6.68-13.91 6.98-14.84Q7.28-15.78 7.49-16.73Q7.71-17.68 7.82-18.60Q7.94-19.51 7.94-20.28L7.94-20.28L6.50-20.28Q6.33-19.52 6.22-18.41Q6.12-17.29 6.12-15.69L6.12-15.69Q6.12-14.80 6.17-14.20Q6.22-13.59 6.32-13.10ZM7.45-22.23L7.45-22.23Q7.34-22.23 7.13-22.00Q6.93-21.76 6.72-21.14L6.72-21.14L7.89-21.14Q7.83-21.65 7.71-21.94Q7.60-22.23 7.45-22.23ZM6.51-12.21L6.51-12.22L6.51-12.21ZM20.89-11.89L20.89-11.89Q20.84-11.80 20.69-11.49Q20.54-11.17 20.30-10.77Q20.06-10.37 19.74-9.93Q19.43-9.49 19.04-9.12Q18.64-8.76 18.19-8.52Q17.74-8.28 17.24-8.28L17.24-8.28Q16.53-8.28 16.05-8.73Q15.57-9.18 15.35-9.87L15.35-9.87Q14.93-9.17 14.36-8.76Q13.79-8.35 13.21-8.35L13.21-8.35Q12.76-8.35 12.39-8.52Q12.03-8.68 11.77-8.98Q11.52-9.28 11.38-9.69Q11.23-10.09 11.23-10.56L11.23-10.56Q11.23-11.52 11.56-12.24Q11.88-12.97 12.38-13.46Q12.88-13.95 13.49-14.19Q14.09-14.43 14.65-14.43L14.65-14.43Q15.03-14.43 15.35-14.33Q15.67-14.23 15.89-14.10Q16.12-13.98 16.24-13.88Q16.36-13.77 16.37-13.76L16.37-13.76Q16.51-13.60 16.51-13.43L16.51-13.43Q16.51-13.25 16.37-13.11Q16.24-12.97 16.06-12.97L16.06-12.97Q15.86-12.97 15.73-13.10L15.73-13.10Q15.70-13.13 15.62-13.19Q15.53-13.26 15.39-13.34Q15.24-13.41 15.04-13.46Q14.84-13.52 14.58-13.52L14.58-13.52Q14.20-13.52 13.77-13.35Q13.35-13.18 12.99-12.82Q12.64-12.46 12.40-11.91Q12.16-11.37 12.16-10.63L12.16-10.63Q12.16-10.39 12.21-10.16Q12.26-9.92 12.38-9.72Q12.50-9.53 12.71-9.40Q12.92-9.28 13.22-9.28L13.22-9.28Q13.44-9.28 13.73-9.43Q14.02-9.58 14.28-9.88Q14.54-10.19 14.76-10.65Q14.97-11.11 15.06-11.75L15.06-11.75Q15.08-11.92 15.21-12.04Q15.35-12.15 15.53-12.15L15.53-12.15Q15.70-12.15 15.83-12.02Q15.96-11.88 15.97-11.71L15.97-11.71Q15.98-11.48 16.02-11.06Q16.06-10.64 16.18-10.22Q16.31-9.81 16.57-9.50Q16.83-9.20 17.28-9.20L17.28-9.20Q17.57-9.20 17.86-9.36Q18.14-9.51 18.42-9.78Q18.69-10.04 18.94-10.38Q19.19-10.71 19.40-11.05Q19.61-11.39 19.77-11.71Q19.93-12.03 20.04-12.26L20.04-12.26Q20.10-12.40 20.21-12.47Q20.33-12.54 20.46-12.54L20.46-12.54Q20.67-12.54 20.80-12.39Q20.93-12.24 20.93-12.07L20.93-12.07Q20.93-11.98 20.89-11.89ZM22.76-9.59L22.76-9.59Q22.95-9.99 23.21-10.47Q23.47-10.95 23.76-11.45Q24.05-11.94 24.38-12.43Q24.70-12.92 25.05-13.36L25.05-13.36Q25.41-13.79 25.77-13.98Q26.13-14.17 26.44-14.17L26.44-14.17Q27.08-14.17 27.38-13.70Q27.69-13.24 27.69-12.55L27.69-12.55Q27.69-12.40 27.67-12.17Q27.65-11.94 27.64-11.69Q27.62-11.43 27.60-11.17Q27.58-10.91 27.58-10.67L27.58-10.67Q27.58-10.38 27.61-10.11Q27.64-9.84 27.73-9.64Q27.81-9.44 27.97-9.33Q28.13-9.21 28.39-9.21L28.39-9.21Q28.85-9.21 29.29-9.57Q29.73-9.93 30.10-10.42Q30.47-10.92 30.75-11.43Q31.02-11.94 31.16-12.26L31.16-12.26Q31.22-12.40 31.33-12.47Q31.45-12.54 31.58-12.54L31.58-12.54Q31.79-12.54 31.92-12.39Q32.05-12.24 32.05-12.07L32.05-12.07Q32.05-11.98 32.01-11.89L32.01-11.89Q31.96-11.80 31.82-11.49Q31.67-11.19 31.43-10.79Q31.19-10.39 30.88-9.95Q30.56-9.50 30.17-9.14Q29.79-8.77 29.34-8.53Q28.90-8.28 28.41-8.28L28.41-8.28Q27.86-8.28 27.52-8.50Q27.18-8.71 26.98-9.06Q26.79-9.40 26.72-9.83Q26.65-10.25 26.65-10.67L26.65-10.67Q26.65-10.86 26.67-11.09Q26.69-11.32 26.72-11.58Q26.75-11.83 26.77-12.09Q26.79-12.35 26.79-12.58L26.79-12.58Q26.79-12.97 26.66-13.11Q26.54-13.25 26.44-13.25L26.44-13.25Q26.25-13.25 26.00-13.02Q25.75-12.80 25.47-12.43Q25.20-12.07 24.91-11.61Q24.63-11.15 24.38-10.70Q24.13-10.25 23.91-9.84Q23.70-9.43 23.58-9.16L23.58-9.16Q23.33-8.65 23.09-8.47Q22.84-8.29 22.59-8.29L22.59-8.29Q22.23-8.29 22.02-8.51Q21.81-8.72 21.81-9.11L21.81-9.11Q21.81-9.20 21.83-9.45Q21.86-9.70 21.89-10.05Q21.93-10.39 21.96-10.80Q22.00-11.20 22.04-11.60Q22.07-11.99 22.10-12.33Q22.12-12.68 22.12-12.91L22.12-12.91Q22.12-13.21 22.10-13.49Q22.07-13.77 22.00-13.84L22.00-13.84Q21.89-13.80 21.61-13.38Q21.33-12.96 20.89-11.89L20.89-11.89Q20.83-11.76 20.71-11.69Q20.59-11.61 20.45-11.61L20.45-11.61Q20.24-11.61 20.12-11.75Q20.00-11.89 20.00-12.08L20.00-12.08Q20.00-12.16 20.04-12.26L20.04-12.26Q20.59-13.57 21.07-14.18Q21.55-14.80 22.03-14.80L22.03-14.80Q22.31-14.80 22.50-14.66Q22.70-14.52 22.81-14.29Q22.93-14.06 22.98-13.77Q23.04-13.49 23.04-13.20L23.04-13.20Q23.04-12.98 23.01-12.52Q22.98-12.05 22.93-11.52Q22.88-10.99 22.84-10.47Q22.80-9.94 22.76-9.59ZM40.61-11.89L40.61-11.89Q40.56-11.80 40.40-11.49Q40.25-11.17 40.01-10.77Q39.78-10.37 39.46-9.93Q39.14-9.49 38.75-9.12Q38.36-8.76 37.91-8.52Q37.46-8.28 36.96-8.28L36.96-8.28Q36.25-8.28 35.76-8.73Q35.28-9.18 35.06-9.87L35.06-9.87Q34.65-9.17 34.07-8.76Q33.50-8.35 32.93-8.35L32.93-8.35Q32.48-8.35 32.11-8.52Q31.74-8.68 31.49-8.98Q31.23-9.28 31.09-9.69Q30.95-10.09 30.95-10.56L30.95-10.56Q30.95-11.52 31.27-12.24Q31.60-12.97 32.10-13.46Q32.60-13.95 33.20-14.19Q33.81-14.43 34.37-14.43L34.37-14.43Q34.75-14.43 35.06-14.33Q35.38-14.23 35.61-14.10Q35.83-13.98 35.95-13.88Q36.08-13.77 36.09-13.76L36.09-13.76Q36.22-13.60 36.22-13.43L36.22-13.43Q36.22-13.25 36.09-13.11Q35.95-12.97 35.77-12.97L35.77-12.97Q35.58-12.97 35.44-13.10L35.44-13.10Q35.42-13.13 35.33-13.19Q35.25-13.26 35.10-13.34Q34.95-13.41 34.75-13.46Q34.55-13.52 34.29-13.52L34.29-13.52Q33.92-13.52 33.49-13.35Q33.06-13.18 32.71-12.82Q32.35-12.46 32.12-11.91Q31.88-11.37 31.88-10.63L31.88-10.63Q31.88-10.39 31.93-10.16Q31.97-9.92 32.10-9.72Q32.22-9.53 32.43-9.40Q32.63-9.28 32.94-9.28L32.94-9.28Q33.16-9.28 33.45-9.43Q33.73-9.58 33.99-9.88Q34.26-10.19 34.47-10.65Q34.68-11.11 34.77-11.75L34.77-11.75Q34.79-11.92 34.93-12.04Q35.06-12.15 35.25-12.15L35.25-12.15Q35.42-12.15 35.55-12.02Q35.67-11.88 35.69-11.71L35.69-11.71Q35.70-11.48 35.73-11.06Q35.77-10.64 35.90-10.22Q36.03-9.81 36.28-9.50Q36.54-9.20 36.99-9.20L36.99-9.20Q37.28-9.20 37.57-9.36Q37.86-9.51 38.13-9.78Q38.41-10.04 38.66-10.38Q38.91-10.71 39.12-11.05Q39.32-11.39 39.48-11.71Q39.64-12.03 39.75-12.26L39.75-12.26Q39.81-12.40 39.93-12.47Q40.04-12.54 40.18-12.54L40.18-12.54Q40.39-12.54 40.51-12.39Q40.64-12.24 40.64-12.07L40.64-12.07Q40.64-11.98 40.61-11.89ZM44.30-8.32L44.30-8.32Q44.73-8.75 45.17-9.19Q45.61-9.64 46.03-10.12Q46.44-10.61 46.80-11.14Q47.16-11.68 47.44-12.27L47.44-12.27Q47.50-12.41 47.61-12.47Q47.72-12.54 47.86-12.54L47.86-12.54Q48.06-12.54 48.19-12.40Q48.32-12.25 48.32-12.07L48.32-12.07Q48.32-11.97 48.28-11.88L48.28-11.88Q47.90-11.09 47.42-10.43Q46.93-9.77 46.39-9.18Q45.85-8.59 45.30-8.03Q44.76-7.48 44.25-6.91L44.25-6.91Q44.21-6.07 44.25-5.22Q44.30-4.38 44.30-3.42L44.30-3.42Q44.30-2.64 44.25-1.86Q44.21-1.08 44.10-0.37Q43.99 0.35 43.80 0.97Q43.61 1.59 43.32 2.05Q43.02 2.51 42.63 2.77Q42.24 3.03 41.72 3.03L41.72 3.03Q40.85 3.03 40.39 2.44Q39.92 1.84 39.92 0.76L39.92 0.76Q39.92 0.18 40.05-0.49Q40.18-1.16 40.41-1.88Q40.64-2.59 40.97-3.33Q41.29-4.06 41.67-4.75Q42.05-5.45 42.47-6.08Q42.90-6.71 43.34-7.22L43.34-7.22Q43.36-7.81 43.39-8.43Q43.42-9.06 43.46-9.60L43.46-9.60Q43.14-9.04 42.67-8.70Q42.20-8.35 41.64-8.35L41.64-8.35Q40.71-8.35 40.19-8.98Q39.67-9.60 39.67-10.69L39.67-10.69Q39.67-11.48 39.82-12.13Q39.97-12.79 40.15-13.26Q40.32-13.73 40.47-13.98Q40.62-14.23 40.62-14.21L40.62-14.21Q40.75-14.42 41.00-14.42L41.00-14.42Q41.20-14.42 41.33-14.28Q41.46-14.14 41.46-13.96L41.46-13.96Q41.46-13.82 41.39-13.71L41.39-13.71Q41.40-13.73 41.27-13.51Q41.14-13.30 40.99-12.90Q40.84-12.49 40.71-11.93Q40.58-11.37 40.58-10.70L40.58-10.70Q40.58-10.03 40.82-9.65Q41.07-9.27 41.62-9.27L41.62-9.27Q42.31-9.27 42.88-10.30Q43.44-11.33 43.83-13.30L43.83-13.30Q43.85-13.46 43.97-13.56Q44.10-13.66 44.27-13.66L44.27-13.66Q44.46-13.66 44.60-13.53Q44.73-13.40 44.73-13.20L44.73-13.20Q44.73-13.16 44.68-12.77Q44.63-12.37 44.57-11.71Q44.50-11.05 44.43-10.18Q44.35-9.31 44.30-8.32ZM43.33-5.73L43.33-5.73Q42.78-4.94 42.32-4.06Q41.86-3.18 41.53-2.31Q41.20-1.45 41.02-0.65Q40.84 0.14 40.84 0.76L40.84 0.76Q40.84 1.40 41.04 1.76Q41.25 2.12 41.70 2.12L41.70 2.12Q42.11 2.12 42.42 1.72Q42.73 1.33 42.94 0.59Q43.16-0.14 43.27-1.18Q43.38-2.23 43.38-3.52L43.38-3.52Q43.38-4.05 43.36-4.58Q43.34-5.12 43.33-5.73ZM57.67-12.04L57.67-12.04Q58.27-9.22 59.40-9.22L59.40-9.22Q59.84-9.22 60.25-9.54Q60.65-9.87 61.00-10.34Q61.34-10.81 61.61-11.33Q61.88-11.86 62.05-12.25L62.05-12.25Q62.17-12.54 62.48-12.54L62.48-12.54Q62.68-12.54 62.81-12.40Q62.94-12.25 62.94-12.08L62.94-12.08Q62.94-11.98 62.91-11.91L62.91-11.91Q62.82-11.70 62.66-11.35Q62.49-11.00 62.25-10.61Q62.02-10.21 61.72-9.80Q61.43-9.38 61.08-9.05Q60.72-8.72 60.33-8.51Q59.93-8.29 59.49-8.29L59.49-8.29Q58.67-8.29 58.09-8.86Q57.50-9.43 57.07-10.74L57.07-10.74Q56.49-9.49 55.89-8.93Q55.29-8.37 54.59-8.37L54.59-8.37Q54.23-8.37 53.89-8.48Q53.54-8.60 53.29-8.87Q53.03-9.14 52.87-9.56Q52.71-9.98 52.71-10.59L52.71-10.59Q52.71-11.43 53.01-12.14Q53.30-12.85 53.76-13.35Q54.23-13.86 54.80-14.14Q55.36-14.42 55.92-14.42L55.92-14.42Q56.11-14.42 56.24-14.29Q56.38-14.17 56.38-13.97L56.38-13.97Q56.38-13.80 56.27-13.66Q56.16-13.53 55.97-13.51L55.97-13.51Q55.61-13.46 55.19-13.27Q54.78-13.09 54.43-12.74Q54.08-12.40 53.86-11.86Q53.63-11.32 53.63-10.58L53.63-10.58Q53.63-9.97 53.88-9.62Q54.13-9.28 54.61-9.28L54.61-9.28Q54.80-9.28 55.02-9.39Q55.24-9.49 55.49-9.80Q55.74-10.10 56.04-10.66Q56.34-11.22 56.71-12.14L56.71-12.14Q56.50-13.21 56.33-14.62Q56.16-16.02 56.16-17.75L56.16-17.75Q56.16-18.51 56.21-19.33Q56.25-20.16 56.36-20.95Q56.47-21.73 56.66-22.44Q56.84-23.15 57.10-23.69Q57.37-24.22 57.72-24.54Q58.07-24.85 58.53-24.85L58.53-24.85Q58.93-24.85 59.21-24.63Q59.49-24.41 59.67-24.02Q59.84-23.63 59.93-23.08Q60.01-22.53 60.01-21.87L60.01-21.87Q60.01-20.45 59.77-19.04Q59.53-17.62 59.17-16.33Q58.81-15.03 58.40-13.93Q58.00-12.83 57.67-12.04ZM59.10-21.88L59.10-21.88Q59.10-22.19 59.08-22.54Q59.06-22.89 58.99-23.20Q58.93-23.52 58.82-23.72Q58.71-23.93 58.53-23.93L58.53-23.93Q58.22-23.93 57.96-23.39Q57.69-22.86 57.50-21.98Q57.30-21.11 57.19-20.01Q57.07-18.90 57.07-17.78L57.07-17.78Q57.07-16.70 57.16-15.63Q57.24-14.56 57.35-13.71L57.35-13.71Q57.71-14.65 58.02-15.65Q58.34-16.64 58.58-17.68Q58.82-18.72 58.96-19.77Q59.10-20.83 59.10-21.88ZM63.53-9.83L63.53-9.83Q63.79-9.48 64.19-9.26Q64.59-9.05 65.18-9.05L65.18-9.05Q65.78-9.05 66.26-9.34Q66.75-9.62 67.16-10.09Q67.56-10.55 67.88-11.13Q68.19-11.70 68.45-12.27L68.45-12.27Q68.51-12.41 68.62-12.47Q68.73-12.54 68.86-12.54L68.86-12.54Q69.07-12.54 69.20-12.40Q69.33-12.25 69.33-12.08L69.33-12.08Q69.33-12.02 69.32-11.97Q69.30-11.93 69.28-11.88L69.28-11.88Q68.44-10.03 67.44-9.09Q66.45-8.15 65.19-8.12L65.19-8.12Q64.38-8.12 63.80-8.43Q63.21-8.75 62.83-9.24Q62.46-9.73 62.27-10.36Q62.09-10.98 62.09-11.60L62.09-11.60Q62.09-12.22 62.24-12.75Q62.39-13.27 62.68-13.66Q62.97-14.06 63.37-14.28Q63.76-14.49 64.24-14.49L64.24-14.49Q64.52-14.49 64.79-14.38Q65.07-14.26 65.29-14.05Q65.51-13.84 65.64-13.53Q65.78-13.23 65.78-12.83L65.78-12.83Q65.78-12.33 65.61-11.89Q65.43-11.46 65.14-11.08Q64.84-10.70 64.42-10.38Q64.01-10.06 63.53-9.83ZM63.16-10.63L63.16-10.63Q63.54-10.78 63.85-11.03Q64.16-11.27 64.38-11.57Q64.60-11.86 64.73-12.18Q64.85-12.51 64.85-12.83L64.85-12.83Q64.85-13.20 64.67-13.39Q64.48-13.58 64.24-13.58L64.24-13.58Q63.91-13.58 63.68-13.40Q63.44-13.21 63.30-12.92Q63.15-12.63 63.08-12.27Q63.02-11.91 63.02-11.55L63.02-11.55Q63.02-11.33 63.06-11.09Q63.10-10.84 63.16-10.63ZM69.80-13.01L69.80-13.01Q69.73-12.81 69.63-12.57Q69.52-12.32 69.39-12.05L69.39-12.05Q69.28-11.85 69.16-11.73Q69.05-11.61 68.86-11.61L68.86-11.61Q68.66-11.61 68.53-11.74Q68.41-11.87 68.41-12.04L68.41-12.04Q68.41-12.10 68.42-12.15Q68.44-12.19 68.49-12.29L68.49-12.29Q68.80-12.90 68.96-13.35Q69.11-13.81 69.21-14.31L69.21-14.31Q69.12-14.59 69.08-14.79Q69.05-14.98 69.05-15.19L69.05-15.19Q69.05-15.59 69.22-15.84Q69.39-16.09 69.69-16.09L69.69-16.09Q69.98-16.09 70.14-15.85Q70.30-15.61 70.30-15.25L70.30-15.25Q70.30-15.06 70.27-14.86Q70.23-14.67 70.17-14.37L70.17-14.37Q70.45-13.68 70.73-13.14Q71.01-12.60 71.23-12.16Q71.45-11.71 71.59-11.32Q71.73-10.93 71.73-10.54L71.73-10.54Q71.73-10.03 71.53-9.56Q71.32-9.10 70.84-8.78L70.84-8.78Q70.90-8.77 70.96-8.77Q71.03-8.77 71.09-8.77L71.09-8.77Q71.78-8.77 72.37-9.09Q72.95-9.40 73.42-9.91Q73.89-10.42 74.26-11.03Q74.63-11.65 74.89-12.26L74.89-12.26Q75.02-12.54 75.24-12.54L75.24-12.54Q75.44-12.54 75.56-12.40Q75.68-12.25 75.68-12.08L75.68-12.08Q75.68-11.98 75.64-11.89L75.64-11.89Q75.50-11.57 75.29-11.14Q75.08-10.72 74.78-10.28Q74.48-9.83 74.09-9.40Q73.70-8.98 73.22-8.64Q72.73-8.31 72.16-8.10Q71.59-7.90 70.90-7.90L70.90-7.90Q70.09-7.90 69.38-8.19Q68.68-8.48 68.24-9.14L68.24-9.14Q68.17-9.25 68.17-9.37L68.17-9.37Q68.17-9.55 68.31-9.69Q68.45-9.83 68.63-9.83L68.63-9.83Q68.83-9.83 68.96-9.70L68.96-9.70Q68.97-9.67 69.05-9.62Q69.12-9.56 69.22-9.50Q69.33-9.43 69.47-9.38Q69.61-9.33 69.76-9.33L69.76-9.33Q70.05-9.33 70.25-9.45Q70.45-9.58 70.57-9.75Q70.70-9.93 70.75-10.13Q70.81-10.33 70.81-10.48L70.81-10.48Q70.81-10.78 70.71-11.09Q70.61-11.39 70.46-11.70Q70.30-12.00 70.13-12.33Q69.95-12.65 69.80-13.01ZM84.23-11.89L84.23-11.89Q84.18-11.80 84.03-11.49Q83.88-11.17 83.64-10.77Q83.40-10.37 83.09-9.93Q82.77-9.49 82.38-9.12Q81.99-8.76 81.54-8.52Q81.08-8.28 80.58-8.28L80.58-8.28Q79.88-8.28 79.39-8.73Q78.91-9.18 78.69-9.87L78.69-9.87Q78.28-9.17 77.70-8.76Q77.13-8.35 76.55-8.35L76.55-8.35Q76.10-8.35 75.74-8.52Q75.37-8.68 75.11-8.98Q74.86-9.28 74.72-9.69Q74.58-10.09 74.58-10.56L74.58-10.56Q74.58-11.52 74.90-12.24Q75.22-12.97 75.72-13.46Q76.23-13.95 76.83-14.19Q77.43-14.43 78.00-14.43L78.00-14.43Q78.37-14.43 78.69-14.33Q79.01-14.23 79.23-14.10Q79.46-13.98 79.58-13.88Q79.70-13.77 79.72-13.76L79.72-13.76Q79.85-13.60 79.85-13.43L79.85-13.43Q79.85-13.25 79.72-13.11Q79.58-12.97 79.40-12.97L79.40-12.97Q79.20-12.97 79.07-13.10L79.07-13.10Q79.05-13.13 78.96-13.19Q78.87-13.26 78.73-13.34Q78.58-13.41 78.38-13.46Q78.18-13.52 77.92-13.52L77.92-13.52Q77.54-13.52 77.12-13.35Q76.69-13.18 76.34-12.82Q75.98-12.46 75.74-11.91Q75.50-11.37 75.50-10.63L75.50-10.63Q75.50-10.39 75.55-10.16Q75.60-9.92 75.72-9.72Q75.85-9.53 76.05-9.40Q76.26-9.28 76.57-9.28L76.57-9.28Q76.79-9.28 77.07-9.43Q77.36-9.58 77.62-9.88Q77.89-10.19 78.10-10.65Q78.31-11.11 78.40-11.75L78.40-11.75Q78.42-11.92 78.56-12.04Q78.69-12.15 78.87-12.15L78.87-12.15Q79.05-12.15 79.17-12.02Q79.30-11.88 79.31-11.71L79.31-11.71Q79.33-11.48 79.36-11.06Q79.40-10.64 79.53-10.22Q79.66-9.81 79.91-9.50Q80.17-9.20 80.62-9.20L80.62-9.20Q80.91-9.20 81.20-9.36Q81.49-9.51 81.76-9.78Q82.04-10.04 82.29-10.38Q82.54-10.71 82.74-11.05Q82.95-11.39 83.11-11.71Q83.27-12.03 83.38-12.26L83.38-12.26Q83.44-12.40 83.56-12.47Q83.67-12.54 83.81-12.54L83.81-12.54Q84.01-12.54 84.14-12.39Q84.27-12.24 84.27-12.07L84.27-12.07Q84.27-11.98 84.23-11.89ZM85.38-18.07L85.38-18.07Q85.38-17.61 85.06-17.28Q84.73-16.96 84.27-16.96L84.27-16.96Q83.81-16.96 83.48-17.28Q83.16-17.61 83.16-18.07L83.16-18.07Q83.16-18.30 83.24-18.50Q83.33-18.71 83.48-18.86Q83.63-19.01 83.84-19.10Q84.04-19.18 84.27-19.18L84.27-19.18Q84.50-19.18 84.70-19.10Q84.90-19.01 85.06-18.86Q85.21-18.71 85.30-18.50Q85.38-18.30 85.38-18.07ZM83.40-10.92L83.40-10.92Q83.40-12.68 83.62-14.42L83.62-14.42Q83.65-14.59 83.78-14.72Q83.90-14.85 84.11-14.85L84.11-14.85Q84.29-14.85 84.42-14.71Q84.54-14.57 84.54-14.39L84.54-14.39Q84.54-14.31 84.51-13.95Q84.48-13.58 84.43-13.07Q84.39-12.57 84.36-12.00Q84.33-11.43 84.33-10.95L84.33-10.95Q84.33-10.31 84.46-9.91Q84.59-9.51 84.79-9.29Q84.99-9.07 85.22-9.00Q85.44-8.93 85.65-8.93L85.65-8.93Q85.99-8.93 86.36-9.17Q86.72-9.42 87.11-9.86Q87.49-10.30 87.88-10.91Q88.27-11.53 88.65-12.29L88.65-12.29Q88.71-12.41 88.82-12.47Q88.93-12.54 89.07-12.54L89.07-12.54Q89.26-12.54 89.39-12.40Q89.52-12.25 89.52-12.08L89.52-12.08Q89.52-11.96 89.47-11.87L89.47-11.87Q89.32-11.59 89.10-11.19Q88.88-10.78 88.60-10.36Q88.32-9.93 87.99-9.51Q87.65-9.09 87.27-8.75Q86.89-8.42 86.48-8.21Q86.06-8.00 85.64-8.00L85.64-8.00Q85.09-8.00 84.67-8.23Q84.26-8.46 83.97-8.86Q83.68-9.25 83.54-9.78Q83.40-10.31 83.40-10.92ZM84.70-18.07L84.70-18.07Q84.70-18.24 84.57-18.37Q84.44-18.50 84.27-18.50L84.27-18.50Q84.10-18.50 83.98-18.37Q83.85-18.24 83.85-18.07L83.85-18.07Q83.85-17.90 83.98-17.78Q84.10-17.66 84.27-17.66L84.27-17.66Q84.44-17.66 84.57-17.78Q84.70-17.90 84.70-18.07Z"></path></g></g></svg>