<?xml version="1.0" encoding="UTF-8"?>
<!DOCTYPE svg PUBLIC "-//W3C//DTD SVG 1.1//EN" "http://www.w3.org/Graphics/SVG/1.1/DTD/svg11.dtd">
<svg xmlns="http://www.w3.org/2000/svg" version="1.1" width="2000px" height="400px" style="shape-rendering:geometricPrecision; text-rendering:geometricPrecision; image-rendering:optimizeQuality; fill-rule:evenodd; clip-rule:evenodd" xmlns:xlink="http://www.w3.org/1999/xlink">
<g><path style="opacity:0.785" fill="#000000" d="M 1137.5,57.5 C 1140.98,57.6118 1142.48,59.2785 1142,62.5C 1124.19,86.4456 1110.86,112.779 1102,141.5C 1100.61,146.401 1100.78,151.067 1102.5,155.5C 1104.76,156.647 1107.1,156.814 1109.5,156C 1112.3,154.207 1114.8,152.04 1117,149.5C 1122,141.5 1127,133.5 1132,125.5C 1140.01,115.148 1150.34,108.481 1163,105.5C 1174.92,107.85 1178.59,114.85 1174,126.5C 1164.42,138.129 1152.09,145.129 1137,147.5C 1135.89,147.415 1134.89,147.081 1134,146.5C 1132.37,156.255 1136.37,161.922 1146,163.5C 1158.44,162.276 1168.44,156.609 1176,146.5C 1185.6,130.29 1195.93,114.623 1207,99.5C 1208.88,99.6878 1210.05,100.688 1210.5,102.5C 1209.06,105.538 1208.06,108.704 1207.5,112C 1210.12,120.825 1211.79,129.825 1212.5,139C 1212.29,145.02 1211.46,150.853 1210,156.5C 1218.35,149.444 1225.02,141.111 1230,131.5C 1239.18,118.325 1251.68,110.325 1267.5,107.5C 1274.4,107.946 1279.74,110.946 1283.5,116.5C 1285.48,114.016 1287.65,111.683 1290,109.5C 1291.02,110.354 1291.86,111.354 1292.5,112.5C 1284.53,125.778 1278.19,139.778 1273.5,154.5C 1273.8,158.226 1275.8,159.393 1279.5,158C 1283.58,155.925 1287.08,153.092 1290,149.5C 1298.51,135.327 1308.17,121.994 1319,109.5C 1321.19,110.967 1321.85,112.967 1321,115.5C 1314.53,126.769 1308.87,138.435 1304,150.5C 1303.33,152.833 1303.33,155.167 1304,157.5C 1307.95,158.959 1311.45,158.126 1314.5,155C 1320.23,148.87 1325.23,142.203 1329.5,135C 1332.47,134.978 1333.64,136.478 1333,139.5C 1328.2,150.633 1320.37,158.8 1309.5,164C 1299.53,166.288 1294.36,162.455 1294,152.5C 1287.86,161.996 1279.36,165.496 1268.5,163C 1265.46,160.975 1263.79,158.141 1263.5,154.5C 1257.67,160.836 1250.67,165.336 1242.5,168C 1230.84,169.249 1224,164.082 1222,152.5C 1213.08,163.545 1201.58,169.045 1187.5,169C 1181.23,167.728 1177.23,164.061 1175.5,158C 1176.01,156.831 1176.84,155.998 1178,155.5C 1183.9,163.11 1190.23,163.443 1197,156.5C 1203.51,143.934 1204.85,130.934 1201,117.5C 1194.08,129.68 1186.41,141.347 1178,152.5C 1168.01,164.75 1155.17,170.25 1139.5,169C 1129.77,166.608 1124.27,160.441 1123,150.5C 1116.25,161.525 1107.09,164.692 1095.5,160C 1093.88,157.92 1092.38,155.754 1091,153.5C 1084.63,161.272 1076.46,165.105 1066.5,165C 1056.77,162.11 1051.77,155.61 1051.5,145.5C 1054.93,121.905 1068.43,107.905 1092,103.5C 1095.62,104.113 1099.12,105.113 1102.5,106.5C 1108.47,98.583 1113.97,90.2497 1119,81.5C 1125,73.3387 1131.17,65.3387 1137.5,57.5 Z M 1091.5,110.5 C 1094.27,110.421 1096.94,110.921 1099.5,112C 1100.02,112.561 1100.36,113.228 1100.5,114C 1095.92,124.068 1092.76,134.568 1091,145.5C 1086.7,150.805 1081.53,154.972 1075.5,158C 1072.17,158.667 1068.83,158.667 1065.5,158C 1060.76,151.166 1060.26,143.999 1064,136.5C 1068.92,123.077 1078.08,114.411 1091.5,110.5 Z M 1160.5,111.5 C 1166.67,110.173 1168.84,112.506 1167,118.5C 1160.91,132.44 1150.41,139.773 1135.5,140.5C 1140.67,128.007 1149,118.34 1160.5,111.5 Z M 1265.5,114.5 C 1269.31,114.163 1272.97,114.663 1276.5,116C 1277.46,117.707 1278.13,119.541 1278.5,121.5C 1272.1,136.788 1262.44,149.621 1249.5,160C 1236.84,165.881 1231.67,161.714 1234,147.5C 1239.68,131.655 1250.18,120.655 1265.5,114.5 Z"/></g>
<g><path style="opacity:0.802" fill="#000000" d="M 703.5,71.5 C 705.903,71.695 707.57,72.8616 708.5,75C 704.174,82.6507 699.84,90.3173 695.5,98C 703.827,98.4997 712.16,98.6664 720.5,98.5C 720.671,100.993 719.671,102.826 717.5,104C 708.922,104.182 700.422,104.682 692,105.5C 684.31,120.237 678.81,135.737 675.5,152C 675.07,157.563 677.57,160.73 683,161.5C 686.925,160.953 690.425,159.453 693.5,157C 702.247,148.665 709.413,139.165 715,128.5C 724.026,116.738 735.859,109.738 750.5,107.5C 757.299,107.812 762.466,110.812 766,116.5C 768.043,114.288 770.209,112.288 772.5,110.5C 774,110.453 775,111.119 775.5,112.5C 768.258,124.985 762.091,137.985 757,151.5C 755.087,157.094 756.92,159.261 762.5,158C 767.619,155.215 771.786,151.382 775,146.5C 782.393,136.104 789.393,125.437 796,114.5C 807.189,101.508 815.023,102.841 819.5,118.5C 825.009,113.995 831.176,110.661 838,108.5C 847.802,111.093 851.802,117.426 850,127.5C 845.543,137.748 840.543,147.748 835,157.5C 834.503,159.81 834.337,162.143 834.5,164.5C 837.425,164.54 840.091,163.707 842.5,162C 852.535,151.97 861.035,140.803 868,128.5C 877.026,116.738 888.859,109.738 903.5,107.5C 910.299,107.812 915.466,110.812 919,116.5C 921.374,114.461 923.374,112.128 925,109.5C 926.487,110.155 927.653,111.155 928.5,112.5C 920.527,125.778 914.194,139.778 909.5,154.5C 909.798,158.226 911.798,159.393 915.5,158C 918.783,156.439 921.617,154.273 924,151.5C 931.333,142.176 937.666,132.176 943,121.5C 946.561,117.027 950.561,113.027 955,109.5C 956.757,110.119 957.924,111.286 958.5,113C 949.859,124.285 944.193,136.952 941.5,151C 942.335,157.039 945.668,159.039 951.5,157C 960.249,151.586 967.749,144.753 974,136.5C 982,124.5 990,112.5 998,100.5C 1000.74,101.222 1001.74,102.888 1001,105.5C 991.697,124.606 982.53,143.773 973.5,163C 973.667,163.5 973.833,164 974,164.5C 986.414,156.754 996.914,146.921 1005.5,135C 1007.6,134.749 1008.94,135.749 1009.5,138C 998.5,153.329 984.667,165.496 968,174.5C 960.534,191.439 951.534,207.439 941,222.5C 935.888,229.289 929.388,234.123 921.5,237C 908.048,238.004 903.215,231.838 907,218.5C 912.587,206.575 920.754,196.741 931.5,189C 939.164,183.499 947.164,178.499 955.5,174C 959.215,168.073 962.548,161.906 965.5,155.5C 965.167,155.167 964.833,154.833 964.5,154.5C 958.541,160.983 951.208,163.816 942.5,163C 936.741,160.342 933.241,155.842 932,149.5C 925.987,159.752 917.153,164.586 905.5,164C 904.069,163.535 902.903,162.701 902,161.5C 901.147,159.065 900.147,156.731 899,154.5C 892.536,162.149 884.369,166.815 874.5,168.5C 864.93,167.431 859.43,162.098 858,152.5C 853.079,160.052 846.579,165.885 838.5,170C 828.175,170.674 823.675,165.84 825,155.5C 829.89,144.717 835.557,134.384 842,124.5C 842.498,121.518 842.665,118.518 842.5,115.5C 837.623,114.812 833.29,115.979 829.5,119C 824.3,123.865 819.467,129.032 815,134.5C 806.333,145.833 797.667,157.167 789,168.5C 786.417,167.126 783.917,165.626 781.5,164C 791.937,151.648 800.77,138.148 808,123.5C 809.156,119.56 809.99,115.56 810.5,111.5C 809.178,111.67 808.011,111.337 807,110.5C 804.333,113.167 801.667,115.833 799,118.5C 792.333,129.167 785.667,139.833 779,150.5C 774.756,155.415 769.923,159.581 764.5,163C 759.833,165 755.167,165 750.5,163C 748.374,160.567 747.041,157.734 746.5,154.5C 740.667,160.836 733.667,165.336 725.5,168C 714.272,169.445 707.439,164.612 705,153.5C 699.674,159.16 693.508,163.66 686.5,167C 673.356,168.698 666.356,162.865 665.5,149.5C 668.102,134.026 673.102,119.36 680.5,105.5C 676.429,104.863 672.429,104.029 668.5,103C 669.293,101.915 669.96,100.748 670.5,99.5C 675.132,98.6717 679.798,98.1717 684.5,98C 690.23,88.6966 696.563,79.8633 703.5,71.5 Z M 748.5,114.5 C 755.269,112.687 759.602,115.021 761.5,121.5C 756.346,131.806 750.18,141.472 743,150.5C 737.843,156.851 731.343,160.851 723.5,162.5C 718.481,162.004 715.814,159.171 715.5,154C 719.613,134.748 730.613,121.582 748.5,114.5 Z M 901.5,114.5 C 908.269,112.687 912.602,115.021 914.5,121.5C 909.346,131.806 903.18,141.472 896,150.5C 890.843,156.851 884.343,160.851 876.5,162.5C 871.481,162.004 868.814,159.171 868.5,154C 871.736,138.775 879.736,126.775 892.5,118C 895.571,116.704 898.571,115.538 901.5,114.5 Z M 949.5,184.5 C 950.239,184.369 950.906,184.536 951.5,185C 946.157,197.524 939.657,209.357 932,220.5C 929.5,224.333 926.333,227.5 922.5,230C 913.755,233.903 910.588,231.403 913,222.5C 918.272,212.218 925.439,203.385 934.5,196C 939.685,192.303 944.685,188.47 949.5,184.5 Z"/></g>
<g><path style="opacity:0.758" fill="#000000" d="M 1330.5,89.5 C 1337.21,90.0556 1339.04,93.3889 1336,99.5C 1329.09,107.191 1325.42,106.191 1325,96.5C 1325.97,93.3794 1327.8,91.046 1330.5,89.5 Z"/></g>
</svg>
